<svg width="151" height="21" viewBox="0 0 151 21" fill="none" xmlns="http://www.w3.org/2000/svg">
<path d="M9 14.4525L13.635 17.25L12.405 11.9775L16.5 8.43L11.1075 7.9725L9 3L6.8925 7.9725L1.5 8.43L5.595 11.9775L4.365 17.25L9 14.4525Z" fill="#FCE91B"/>
<path d="M27 14.4525L31.635 17.25L30.405 11.9775L34.5 8.43L29.1075 7.9725L27 3L24.8925 7.9725L19.5 8.43L23.595 11.9775L22.365 17.25L27 14.4525Z" fill="#FCE91B"/>
<mask id="mask0_11360_1329" style="mask-type:alpha" maskUnits="userSpaceOnUse" x="36" y="1" width="18" height="19">
<path d="M45 14.4525L49.635 17.25L48.405 11.9775L52.5 8.43L47.1075 7.9725L45 3L42.8925 7.9725L37.5 8.43L41.595 11.9775L40.365 17.25L45 14.4525Z" fill="black"/>
</mask>
<g mask="url(#mask0_11360_1329)">
<rect x="36" y="1.5" width="9" height="18" fill="#FCE91B"/>
<rect x="45" y="1.5" width="9" height="18" fill="#3A3541" fill-opacity="0.12"/>
</g>
<path d="M63 14.4525L67.635 17.25L66.405 11.9775L70.5 8.43L65.1075 7.9725L63 3L60.8925 7.9725L55.5 8.43L59.595 11.9775L58.365 17.25L63 14.4525Z" fill="#3A3541" fill-opacity="0.12"/>
<path d="M81 14.4525L85.635 17.25L84.405 11.9775L88.5 8.43L83.1075 7.9725L81 3L78.8925 7.9725L73.5 8.43L77.595 11.9775L76.365 17.25L81 14.4525Z" fill="#3A3541" fill-opacity="0.12"/>
<path d="M102.13 15.668C101.495 15.668 100.917 15.556 100.394 15.332C99.8807 15.0987 99.47 14.7487 99.162 14.282C98.854 13.8153 98.6907 13.232 98.672 12.532H100.142C100.161 13.0547 100.338 13.498 100.674 13.862C101.019 14.2167 101.505 14.394 102.13 14.394C102.727 14.394 103.185 14.2307 103.502 13.904C103.819 13.568 103.978 13.1527 103.978 12.658C103.978 12.0607 103.763 11.6173 103.334 11.328C102.914 11.0387 102.396 10.894 101.78 10.894H101.052V9.662H101.794C102.345 9.662 102.788 9.53133 103.124 9.27C103.469 9.00867 103.642 8.64 103.642 8.164C103.642 7.76267 103.507 7.436 103.236 7.184C102.975 6.932 102.601 6.806 102.116 6.806C101.612 6.806 101.215 6.95533 100.926 7.254C100.637 7.54333 100.478 7.90733 100.45 8.346H98.98C98.9987 7.77667 99.1387 7.282 99.4 6.862C99.6707 6.442 100.039 6.11533 100.506 5.882C100.973 5.64867 101.509 5.532 102.116 5.532C102.769 5.532 103.315 5.64867 103.754 5.882C104.202 6.106 104.538 6.414 104.762 6.806C104.995 7.18867 105.112 7.60867 105.112 8.066C105.112 8.58867 104.967 9.046 104.678 9.438C104.389 9.83 104.001 10.0913 103.516 10.222C104.076 10.3433 104.538 10.6187 104.902 11.048C105.266 11.468 105.448 12.014 105.448 12.686C105.448 13.2273 105.322 13.7267 105.07 14.184C104.818 14.632 104.445 14.9913 103.95 15.262C103.455 15.5327 102.849 15.668 102.13 15.668ZM108.011 15.584C107.731 15.584 107.498 15.4953 107.311 15.318C107.134 15.1313 107.045 14.912 107.045 14.66C107.045 14.3987 107.134 14.1793 107.311 14.002C107.498 13.8153 107.731 13.722 108.011 13.722C108.291 13.722 108.52 13.8153 108.697 14.002C108.874 14.1793 108.963 14.3987 108.963 14.66C108.963 14.912 108.874 15.1313 108.697 15.318C108.52 15.4953 108.291 15.584 108.011 15.584ZM114.13 15.668C113.44 15.668 112.842 15.5467 112.338 15.304C111.834 15.052 111.433 14.7113 111.134 14.282C110.845 13.8433 110.668 13.3487 110.602 12.798H112.058C112.152 13.2647 112.385 13.652 112.758 13.96C113.132 14.2587 113.594 14.408 114.144 14.408C114.555 14.408 114.91 14.31 115.208 14.114C115.507 13.9087 115.74 13.638 115.908 13.302C116.076 12.966 116.16 12.588 116.16 12.168C116.16 11.5053 115.974 10.978 115.6 10.586C115.227 10.1847 114.756 9.984 114.186 9.984C113.701 9.984 113.286 10.1007 112.94 10.334C112.595 10.558 112.343 10.8427 112.184 11.188H110.77L111.61 5.7H116.902V7.002H112.73L112.226 9.62C112.441 9.37733 112.735 9.17667 113.108 9.018C113.491 8.85 113.92 8.766 114.396 8.766C115.059 8.766 115.628 8.92 116.104 9.228C116.58 9.52667 116.944 9.93267 117.196 10.446C117.458 10.9593 117.588 11.5287 117.588 12.154C117.588 12.8073 117.448 13.4 117.168 13.932C116.888 14.464 116.487 14.8887 115.964 15.206C115.451 15.514 114.84 15.668 114.13 15.668ZM125.691 17.53C125.168 17.026 124.697 16.4333 124.277 15.752C123.866 15.08 123.535 14.3333 123.283 13.512C123.04 12.6813 122.919 11.79 122.919 10.838C122.919 9.886 123.04 8.99933 123.283 8.178C123.535 7.34733 123.866 6.596 124.277 5.924C124.697 5.24267 125.168 4.65 125.691 4.146H127.175V4.286C126.335 5.154 125.658 6.148 125.145 7.268C124.641 8.388 124.389 9.578 124.389 10.838C124.389 12.098 124.641 13.288 125.145 14.408C125.658 15.528 126.339 16.522 127.189 17.39V17.53H125.691ZM131.6 15.668C130.946 15.668 130.354 15.5513 129.822 15.318C129.299 15.0753 128.879 14.7393 128.562 14.31C128.254 13.8807 128.1 13.3767 128.1 12.798C128.1 12.21 128.263 11.6827 128.59 11.216C128.926 10.7493 129.369 10.432 129.92 10.264C129.425 10.068 129.042 9.78333 128.772 9.41C128.501 9.02733 128.366 8.60733 128.366 8.15C128.366 7.674 128.492 7.24 128.744 6.848C128.996 6.44667 129.36 6.12933 129.836 5.896C130.321 5.65333 130.909 5.532 131.6 5.532C132.29 5.532 132.874 5.65333 133.35 5.896C133.835 6.12933 134.204 6.44667 134.456 6.848C134.708 7.24 134.834 7.674 134.834 8.15C134.834 8.598 134.694 9.018 134.414 9.41C134.143 9.79267 133.76 10.0773 133.266 10.264C133.816 10.4413 134.255 10.7633 134.582 11.23C134.918 11.6873 135.086 12.21 135.086 12.798C135.086 13.3767 134.932 13.8807 134.624 14.31C134.316 14.7393 133.896 15.0753 133.364 15.318C132.841 15.5513 132.253 15.668 131.6 15.668ZM131.6 9.788C132.141 9.788 132.566 9.648 132.874 9.368C133.191 9.088 133.35 8.72867 133.35 8.29C133.35 7.79533 133.196 7.41733 132.888 7.156C132.58 6.89467 132.15 6.764 131.6 6.764C131.049 6.764 130.62 6.89467 130.312 7.156C130.004 7.41733 129.85 7.79533 129.85 8.29C129.85 8.72867 130.004 9.088 130.312 9.368C130.62 9.648 131.049 9.788 131.6 9.788ZM131.6 14.408C132.272 14.408 132.776 14.2493 133.112 13.932C133.448 13.6053 133.616 13.19 133.616 12.686C133.616 12.126 133.434 11.6967 133.07 11.398C132.715 11.09 132.225 10.936 131.6 10.936C130.974 10.936 130.48 11.09 130.116 11.398C129.752 11.6967 129.57 12.126 129.57 12.686C129.57 13.19 129.738 13.6053 130.074 13.932C130.419 14.2493 130.928 14.408 131.6 14.408ZM140.733 15.668C140.015 15.668 139.408 15.5327 138.913 15.262C138.419 14.9913 138.017 14.632 137.709 14.184C137.411 13.736 137.196 13.232 137.065 12.672C136.935 12.112 136.869 11.538 136.869 10.95C136.869 9.86733 137.019 8.92 137.317 8.108C137.625 7.296 138.064 6.666 138.633 6.218C139.203 5.76067 139.893 5.532 140.705 5.532C141.349 5.532 141.9 5.658 142.357 5.91C142.815 6.162 143.169 6.498 143.421 6.918C143.683 7.338 143.841 7.79533 143.897 8.29H142.511C142.427 7.80467 142.227 7.43133 141.909 7.17C141.592 6.90867 141.186 6.778 140.691 6.778C140.01 6.778 139.445 7.1 138.997 7.744C138.559 8.37867 138.325 9.35867 138.297 10.684C138.521 10.2733 138.867 9.92333 139.333 9.634C139.809 9.34467 140.355 9.2 140.971 9.2C141.522 9.2 142.035 9.33067 142.511 9.592C142.997 9.85333 143.389 10.222 143.687 10.698C143.995 11.1647 144.149 11.72 144.149 12.364C144.149 12.9333 144.009 13.47 143.729 13.974C143.449 14.478 143.053 14.8887 142.539 15.206C142.035 15.514 141.433 15.668 140.733 15.668ZM140.649 14.38C141.041 14.38 141.391 14.296 141.699 14.128C142.007 13.96 142.25 13.7313 142.427 13.442C142.605 13.1433 142.693 12.8073 142.693 12.434C142.693 11.8367 142.497 11.3607 142.105 11.006C141.723 10.6513 141.233 10.474 140.635 10.474C140.243 10.474 139.889 10.5627 139.571 10.74C139.263 10.9173 139.021 11.1553 138.843 11.454C138.666 11.7433 138.577 12.0653 138.577 12.42C138.577 12.8027 138.666 13.1433 138.843 13.442C139.03 13.7313 139.277 13.96 139.585 14.128C139.903 14.296 140.257 14.38 140.649 14.38ZM145.253 17.53V17.39C146.093 16.522 146.77 15.528 147.283 14.408C147.797 13.288 148.053 12.098 148.053 10.838C148.053 9.578 147.797 8.388 147.283 7.268C146.779 6.148 146.107 5.154 145.267 4.286V4.146H146.751C147.265 4.65 147.731 5.24267 148.151 5.924C148.571 6.596 148.903 7.34733 149.145 8.178C149.397 8.99933 149.523 9.886 149.523 10.838C149.523 11.79 149.397 12.6813 149.145 13.512C148.903 14.3333 148.571 15.08 148.151 15.752C147.731 16.4333 147.265 17.026 146.751 17.53H145.253Z" fill="#333333" fill-opacity="0.68"/>
<path d="M98 17.25H150.167V17.95H98V17.25Z" fill="#333333" fill-opacity="0.68"/>
</svg>
